<svg width="295" height="103" viewBox="0 0 295 103" fill="none" xmlns="http://www.w3.org/2000/svg">
<g filter="url(#filter0_d_33_4)">
<circle cx="243.5" cy="47.5" r="21.5" fill="white"/>
</g>
<path d="M237.459 55.875H232.924V41.2705H237.459V55.875ZM235.189 39.2783C233.739 39.2783 232.562 38.0771 232.562 36.627C232.563 35.9304 232.839 35.2623 233.332 34.7698C233.824 34.2772 234.492 34.0005 235.189 34.0005C235.886 34.0005 236.554 34.2772 237.046 34.7698C237.539 35.2623 237.815 35.9304 237.815 36.627C237.815 38.0771 236.639 39.2783 235.189 39.2783ZM254.433 55.875H249.907V48.7656C249.907 47.0713 249.873 44.8984 247.549 44.8984C245.191 44.8984 244.83 46.7393 244.83 48.6436V55.875H240.3V41.2705H244.649V43.2627H244.713C245.318 42.1152 246.797 40.9043 249.004 40.9043C253.594 40.9043 254.438 43.9268 254.438 47.8525V55.875H254.433Z" fill="#091156"/>
<g filter="url(#filter1_d_33_4)">
<circle cx="179.5" cy="47.5" r="21.5" fill="white"/>
</g>
<path d="M179.505 41.8848C176.399 41.8848 173.894 44.3896 173.894 47.4951C173.894 50.6006 176.399 53.1055 179.505 53.1055C182.61 53.1055 185.115 50.6006 185.115 47.4951C185.115 44.3896 182.61 41.8848 179.505 41.8848ZM179.505 51.1426C177.498 51.1426 175.857 49.5068 175.857 47.4951C175.857 45.4834 177.493 43.8477 179.505 43.8477C181.516 43.8477 183.152 45.4834 183.152 47.4951C183.152 49.5068 181.511 51.1426 179.505 51.1426ZM186.653 41.6553C186.653 42.3828 186.067 42.9639 185.344 42.9639C184.617 42.9639 184.036 42.3779 184.036 41.6553C184.036 40.9326 184.622 40.3467 185.344 40.3467C186.067 40.3467 186.653 40.9326 186.653 41.6553ZM190.369 42.9834C190.286 41.2305 189.885 39.6777 188.601 38.3984C187.322 37.1191 185.769 36.7188 184.016 36.6309C182.21 36.5283 176.795 36.5283 174.988 36.6309C173.24 36.7139 171.687 37.1143 170.403 38.3936C169.119 39.6729 168.723 41.2256 168.635 42.9785C168.533 44.7852 168.533 50.2002 168.635 52.0068C168.719 53.7598 169.119 55.3125 170.403 56.5918C171.687 57.8711 173.235 58.2715 174.988 58.3594C176.795 58.4619 182.21 58.4619 184.016 58.3594C185.769 58.2764 187.322 57.876 188.601 56.5918C189.881 55.3125 190.281 53.7598 190.369 52.0068C190.471 50.2002 190.471 44.79 190.369 42.9834ZM188.035 53.9453C187.654 54.9023 186.917 55.6396 185.955 56.0254C184.514 56.5967 181.096 56.4648 179.505 56.4648C177.913 56.4648 174.49 56.5918 173.054 56.0254C172.097 55.6445 171.36 54.9072 170.974 53.9453C170.403 52.5049 170.535 49.0869 170.535 47.4951C170.535 45.9033 170.408 42.4805 170.974 41.0449C171.355 40.0879 172.093 39.3506 173.054 38.9648C174.495 38.3936 177.913 38.5254 179.505 38.5254C181.096 38.5254 184.519 38.3984 185.955 38.9648C186.912 39.3457 187.649 40.083 188.035 41.0449C188.606 42.4854 188.474 45.9033 188.474 47.4951C188.474 49.0869 188.606 52.5098 188.035 53.9453Z" fill="#091156"/>
<g filter="url(#filter2_d_33_4)">
<circle cx="115.5" cy="47.5" r="21.5" fill="white"/>
</g>
<path d="M125.43 42.408C125.446 42.6301 125.446 42.8522 125.446 43.0743C125.446 49.8477 120.291 57.6523 110.868 57.6523C107.965 57.6523 105.268 56.8115 103 55.3522C103.412 55.3997 103.809 55.4156 104.237 55.4156C106.633 55.4156 108.838 54.6066 110.598 53.2266C108.346 53.1789 106.458 51.7037 105.808 49.6732C106.125 49.7208 106.442 49.7525 106.775 49.7525C107.235 49.7525 107.695 49.6891 108.124 49.5781C105.776 49.1021 104.015 47.04 104.015 44.5495V44.4861C104.697 44.8668 105.49 45.1047 106.331 45.1364C104.951 44.2164 104.047 42.6459 104.047 40.8693C104.047 39.9175 104.301 39.0451 104.745 38.2836C107.267 41.3928 111.058 43.4232 115.31 43.6453C115.23 43.2646 115.183 42.8681 115.183 42.4715C115.183 39.6478 117.467 37.3477 120.306 37.3477C121.782 37.3477 123.114 37.9664 124.05 38.9658C125.208 38.7437 126.318 38.3154 127.302 37.7285C126.921 38.9182 126.112 39.9176 125.049 40.552C126.081 40.4411 127.08 40.1555 128 39.7589C127.302 40.7741 126.43 41.6783 125.43 42.408Z" fill="#091156"/>
<g filter="url(#filter3_d_33_4)">
<circle cx="51.5" cy="47.5" r="21.5" fill="white"/>
</g>
<path d="M57.3174 49.0625L58.0117 44.5381H53.6704V41.6021C53.6704 40.3643 54.2769 39.1577 56.2212 39.1577H58.1948V35.3057C58.1948 35.3057 56.4038 35 54.6914 35C51.1162 35 48.7793 37.167 48.7793 41.0898V44.5381H44.8052V49.0625H48.7793V60H53.6704V49.0625H57.3174Z" fill="#091156"/>
<defs>
<filter id="filter0_d_33_4" x="192" y="0" width="103" height="103" filterUnits="userSpaceOnUse" color-interpolation-filters="sRGB">
<feFlood flood-opacity="0" result="BackgroundImageFix"/>
<feColorMatrix in="SourceAlpha" type="matrix" values="0 0 0 0 0 0 0 0 0 0 0 0 0 0 0 0 0 0 127 0" result="hardAlpha"/>
<feMorphology radius="11" operator="dilate" in="SourceAlpha" result="effect1_dropShadow_33_4"/>
<feOffset dy="4"/>
<feGaussianBlur stdDeviation="9.5"/>
<feComposite in2="hardAlpha" operator="out"/>
<feColorMatrix type="matrix" values="0 0 0 0 0.964706 0 0 0 0 0.968627 0 0 0 0 1 0 0 0 1 0"/>
<feBlend mode="normal" in2="BackgroundImageFix" result="effect1_dropShadow_33_4"/>
<feBlend mode="normal" in="SourceGraphic" in2="effect1_dropShadow_33_4" result="shape"/>
</filter>
<filter id="filter1_d_33_4" x="128" y="0" width="103" height="103" filterUnits="userSpaceOnUse" color-interpolation-filters="sRGB">
<feFlood flood-opacity="0" result="BackgroundImageFix"/>
<feColorMatrix in="SourceAlpha" type="matrix" values="0 0 0 0 0 0 0 0 0 0 0 0 0 0 0 0 0 0 127 0" result="hardAlpha"/>
<feMorphology radius="11" operator="dilate" in="SourceAlpha" result="effect1_dropShadow_33_4"/>
<feOffset dy="4"/>
<feGaussianBlur stdDeviation="9.5"/>
<feComposite in2="hardAlpha" operator="out"/>
<feColorMatrix type="matrix" values="0 0 0 0 0.964706 0 0 0 0 0.968627 0 0 0 0 1 0 0 0 1 0"/>
<feBlend mode="normal" in2="BackgroundImageFix" result="effect1_dropShadow_33_4"/>
<feBlend mode="normal" in="SourceGraphic" in2="effect1_dropShadow_33_4" result="shape"/>
</filter>
<filter id="filter2_d_33_4" x="64" y="0" width="103" height="103" filterUnits="userSpaceOnUse" color-interpolation-filters="sRGB">
<feFlood flood-opacity="0" result="BackgroundImageFix"/>
<feColorMatrix in="SourceAlpha" type="matrix" values="0 0 0 0 0 0 0 0 0 0 0 0 0 0 0 0 0 0 127 0" result="hardAlpha"/>
<feMorphology radius="11" operator="dilate" in="SourceAlpha" result="effect1_dropShadow_33_4"/>
<feOffset dy="4"/>
<feGaussianBlur stdDeviation="9.5"/>
<feComposite in2="hardAlpha" operator="out"/>
<feColorMatrix type="matrix" values="0 0 0 0 0.964706 0 0 0 0 0.968627 0 0 0 0 1 0 0 0 1 0"/>
<feBlend mode="normal" in2="BackgroundImageFix" result="effect1_dropShadow_33_4"/>
<feBlend mode="normal" in="SourceGraphic" in2="effect1_dropShadow_33_4" result="shape"/>
</filter>
<filter id="filter3_d_33_4" x="0" y="0" width="103" height="103" filterUnits="userSpaceOnUse" color-interpolation-filters="sRGB">
<feFlood flood-opacity="0" result="BackgroundImageFix"/>
<feColorMatrix in="SourceAlpha" type="matrix" values="0 0 0 0 0 0 0 0 0 0 0 0 0 0 0 0 0 0 127 0" result="hardAlpha"/>
<feMorphology radius="11" operator="dilate" in="SourceAlpha" result="effect1_dropShadow_33_4"/>
<feOffset dy="4"/>
<feGaussianBlur stdDeviation="9.5"/>
<feComposite in2="hardAlpha" operator="out"/>
<feColorMatrix type="matrix" values="0 0 0 0 0.964706 0 0 0 0 0.968627 0 0 0 0 1 0 0 0 1 0"/>
<feBlend mode="normal" in2="BackgroundImageFix" result="effect1_dropShadow_33_4"/>
<feBlend mode="normal" in="SourceGraphic" in2="effect1_dropShadow_33_4" result="shape"/>
</filter>
</defs>
</svg>
