<svg width="245" height="79" viewBox="0 0 245 79" fill="none" xmlns="http://www.w3.org/2000/svg">
<g filter="url(#filter0_d_24_125)">
<circle cx="207.5" cy="33.5" r="24.5" fill="white"/>
</g>
<path d="M207.505 27.8848C204.399 27.8848 201.895 30.3896 201.895 33.4951C201.895 36.6006 204.399 39.1055 207.505 39.1055C210.61 39.1055 213.115 36.6006 213.115 33.4951C213.115 30.3896 210.61 27.8848 207.505 27.8848ZM207.505 37.1426C205.498 37.1426 203.857 35.5068 203.857 33.4951C203.857 31.4834 205.493 29.8477 207.505 29.8477C209.517 29.8477 211.152 31.4834 211.152 33.4951C211.152 35.5068 209.512 37.1426 207.505 37.1426ZM214.653 27.6553C214.653 28.3828 214.067 28.9639 213.345 28.9639C212.617 28.9639 212.036 28.3779 212.036 27.6553C212.036 26.9326 212.622 26.3467 213.345 26.3467C214.067 26.3467 214.653 26.9326 214.653 27.6553ZM218.369 28.9834C218.286 27.2305 217.886 25.6777 216.602 24.3984C215.322 23.1191 213.77 22.7188 212.017 22.6309C210.21 22.5283 204.795 22.5283 202.988 22.6309C201.24 22.7139 199.688 23.1143 198.403 24.3936C197.119 25.6729 196.724 27.2256 196.636 28.9785C196.533 30.7852 196.533 36.2002 196.636 38.0068C196.719 39.7598 197.119 41.3125 198.403 42.5918C199.688 43.8711 201.235 44.2715 202.988 44.3594C204.795 44.4619 210.21 44.4619 212.017 44.3594C213.77 44.2764 215.322 43.876 216.602 42.5918C217.881 41.3125 218.281 39.7598 218.369 38.0068C218.472 36.2002 218.472 30.79 218.369 28.9834ZM216.035 39.9453C215.654 40.9023 214.917 41.6396 213.955 42.0254C212.515 42.5967 209.097 42.4648 207.505 42.4648C205.913 42.4648 202.49 42.5918 201.055 42.0254C200.098 41.6445 199.36 40.9072 198.975 39.9453C198.403 38.5049 198.535 35.0869 198.535 33.4951C198.535 31.9033 198.408 28.4805 198.975 27.0449C199.355 26.0879 200.093 25.3506 201.055 24.9648C202.495 24.3936 205.913 24.5254 207.505 24.5254C209.097 24.5254 212.52 24.3984 213.955 24.9648C214.912 25.3457 215.649 26.083 216.035 27.0449C216.606 28.4854 216.475 31.9033 216.475 33.4951C216.475 35.0869 216.606 38.5098 216.035 39.9453Z" fill="#091156"/>
<g filter="url(#filter1_d_24_125)">
<circle cx="124.5" cy="33.5" r="24.5" fill="white"/>
</g>
<path d="M129.317 35.0625L130.012 30.5381H125.67V27.6021C125.67 26.3643 126.277 25.1577 128.221 25.1577H130.195V21.3057C130.195 21.3057 128.404 21 126.691 21C123.116 21 120.779 23.167 120.779 27.0898V30.5381H116.805V35.0625H120.779V46H125.67V35.0625H129.317Z" fill="#091156"/>
<g filter="url(#filter2_d_24_125)">
<circle cx="41.5" cy="33.5" r="24.5" fill="white"/>
</g>
<path d="M51.4302 28.4079C51.446 28.63 51.446 28.8521 51.446 29.0742C51.446 35.8476 46.2906 43.6522 36.868 43.6522C33.9651 43.6522 31.2684 42.8114 29 41.3521C29.4125 41.3997 29.809 41.4155 30.2373 41.4155C32.6326 41.4155 34.8375 40.6065 36.5983 39.2265C34.3458 39.1789 32.4581 37.7036 31.8077 35.6731C32.125 35.7207 32.4422 35.7524 32.7754 35.7524C33.2354 35.7524 33.6955 35.689 34.1237 35.578C31.776 35.102 30.0152 33.0399 30.0152 30.5494V30.486C30.6973 30.8667 31.4905 31.1046 32.3312 31.1363C30.9511 30.2163 30.0469 28.6458 30.0469 26.8692C30.0469 25.9174 30.3007 25.045 30.7449 24.2835C33.2671 27.3927 37.0583 29.4231 41.3096 29.6452C41.2303 29.2645 41.1827 28.868 41.1827 28.4714C41.1827 25.6478 43.4669 23.3477 46.3064 23.3477C47.7816 23.3477 49.1141 23.9663 50.05 24.9657C51.208 24.7436 52.3184 24.3153 53.302 23.7284C52.9212 24.9181 52.1122 25.9175 51.0494 26.552C52.0805 26.441 53.0799 26.1554 53.9999 25.7588C53.302 26.774 52.4295 27.6782 51.4302 28.4079Z" fill="#091156"/>
<defs>
<filter id="filter0_d_24_125" x="166" y="0" width="79" height="79" filterUnits="userSpaceOnUse" color-interpolation-filters="sRGB">
<feFlood flood-opacity="0" result="BackgroundImageFix"/>
<feColorMatrix in="SourceAlpha" type="matrix" values="0 0 0 0 0 0 0 0 0 0 0 0 0 0 0 0 0 0 127 0" result="hardAlpha"/>
<feMorphology radius="1" operator="erode" in="SourceAlpha" result="effect1_dropShadow_24_125"/>
<feOffset dx="-2" dy="6"/>
<feGaussianBlur stdDeviation="8"/>
<feComposite in2="hardAlpha" operator="out"/>
<feColorMatrix type="matrix" values="0 0 0 0 0.900764 0 0 0 0 0.912127 0 0 0 0 0.991667 0 0 0 1 0"/>
<feBlend mode="normal" in2="BackgroundImageFix" result="effect1_dropShadow_24_125"/>
<feBlend mode="normal" in="SourceGraphic" in2="effect1_dropShadow_24_125" result="shape"/>
</filter>
<filter id="filter1_d_24_125" x="83" y="0" width="79" height="79" filterUnits="userSpaceOnUse" color-interpolation-filters="sRGB">
<feFlood flood-opacity="0" result="BackgroundImageFix"/>
<feColorMatrix in="SourceAlpha" type="matrix" values="0 0 0 0 0 0 0 0 0 0 0 0 0 0 0 0 0 0 127 0" result="hardAlpha"/>
<feMorphology radius="1" operator="erode" in="SourceAlpha" result="effect1_dropShadow_24_125"/>
<feOffset dx="-2" dy="6"/>
<feGaussianBlur stdDeviation="8"/>
<feComposite in2="hardAlpha" operator="out"/>
<feColorMatrix type="matrix" values="0 0 0 0 0.900764 0 0 0 0 0.912127 0 0 0 0 0.991667 0 0 0 1 0"/>
<feBlend mode="normal" in2="BackgroundImageFix" result="effect1_dropShadow_24_125"/>
<feBlend mode="normal" in="SourceGraphic" in2="effect1_dropShadow_24_125" result="shape"/>
</filter>
<filter id="filter2_d_24_125" x="0" y="0" width="79" height="79" filterUnits="userSpaceOnUse" color-interpolation-filters="sRGB">
<feFlood flood-opacity="0" result="BackgroundImageFix"/>
<feColorMatrix in="SourceAlpha" type="matrix" values="0 0 0 0 0 0 0 0 0 0 0 0 0 0 0 0 0 0 127 0" result="hardAlpha"/>
<feMorphology radius="1" operator="erode" in="SourceAlpha" result="effect1_dropShadow_24_125"/>
<feOffset dx="-2" dy="6"/>
<feGaussianBlur stdDeviation="8"/>
<feComposite in2="hardAlpha" operator="out"/>
<feColorMatrix type="matrix" values="0 0 0 0 0.900764 0 0 0 0 0.912127 0 0 0 0 0.991667 0 0 0 1 0"/>
<feBlend mode="normal" in2="BackgroundImageFix" result="effect1_dropShadow_24_125"/>
<feBlend mode="normal" in="SourceGraphic" in2="effect1_dropShadow_24_125" result="shape"/>
</filter>
</defs>
</svg>
